<?xml version="1.0" encoding="UTF-8"?>
<svg width="280px" height="60px" viewBox="0 0 280 60" version="1.1" xmlns="http://www.w3.org/2000/svg" xmlns:xlink="http://www.w3.org/1999/xlink">
    <!-- Generator: Sketch 52.1 (67048) - http://www.bohemiancoding.com/sketch -->
    <title>logo/rgb/guylepage-logo-wordmark-white</title>
    <desc>Created with Sketch.</desc>
    <g id="Symbols" stroke="none" stroke-width="1" fill="none" fill-rule="evenodd">
        <g id="logo/rgb/guylepage-logo-wordmark-white" fill="#FFFFFF">
            <g id="guylepage-logo-wordmark-white">
                <g transform="translate(16.000000, 9.000000)">
                    <path d="M18.0938,21.0469 C18.0938,16.9689 16.2418,14.4139 13.2888,14.4139 C10.3128,14.4139 8.5078,16.9449 8.5078,21.0469 C8.5078,25.1719 10.2888,27.4689 13.2888,27.4689 C16.2658,27.4689 18.0938,25.1719 18.0938,21.0469 M0.6798,35.4849 L8.7188,35.4849 C9.1168,36.9609 10.8518,37.9919 13.2188,37.9919 C16.4068,37.9919 18.0708,36.2809 18.0708,33.7499 L18.0708,29.0629 L17.9068,29.0629 C16.8988,31.7579 13.8988,33.6099 10.1488,33.6099 C4.0548,33.6099 -0.0002,28.9689 -0.0002,20.9769 C-0.0002,12.8199 3.8668,7.9219 10.2658,7.9219 C13.9688,7.9219 16.8048,9.9379 17.9528,12.8199 L18.1168,12.8199 L18.1168,8.2969 L26.3668,8.2969 L26.3668,33.5389 C26.3668,39.6329 20.9768,43.4299 13.0318,43.4299 C5.7658,43.4299 1.1488,40.1249 0.6798,35.4849" id="Fill-1"></path>
                    <path d="M55.2656,33.8203 L47.2026,33.8203 L47.2026,28.9923 L47.0386,28.9923 C45.8906,32.3433 43.4526,34.3123 39.6096,34.3123 C34.1246,34.3123 30.2576,30.7263 30.2576,24.7033 L30.2576,8.2973 L38.5786,8.2973 L38.5786,22.8983 C38.5786,25.9223 40.1486,27.5393 42.7496,27.5393 C45.3276,27.5393 46.9686,25.6173 46.9686,22.7343 L46.9686,8.2973 L55.2656,8.2973 L55.2656,33.8203 Z" id="Fill-4"></path>
                    <path d="M60.0938,43.1953 L60.0938,36.9143 C60.2108,36.9373 61.7578,36.9613 61.8988,36.9613 C64.4998,36.9613 65.7418,36.3043 65.9528,34.7573 C65.9528,34.6173 66.0468,33.9843 65.9998,33.8203 L57.3988,8.2973 L66.5628,8.2973 L71.1798,27.5863 L71.3208,27.5863 L75.9138,8.2973 L84.6798,8.2973 L76.5238,33.7503 C74.3438,40.5933 70.5938,43.2183 63.1168,43.2183 C62.9998,43.2183 60.2108,43.2183 60.0938,43.1953" id="Fill-6"></path>
                    <polygon id="Fill-8" points="96.234 33.8197 104.554 33.8197 104.554 -0.0003 96.234 -0.0003"></polygon>
                    <path d="M116.0859,18.1406 L125.3669,18.1406 C125.2269,15.4216 123.3749,13.5936 120.7499,13.5936 C118.1949,13.5936 116.2969,15.4926 116.0859,18.1406 Z M133.0549,25.7576 C132.2579,31.0316 127.5699,34.4296 120.8909,34.4296 C112.7579,34.4296 107.9059,29.4376 107.9059,21.1876 C107.9059,12.9376 112.8049,7.6876 120.6089,7.6876 C128.2969,7.6876 133.1949,12.7266 133.1949,20.5316 L133.1949,22.8746 L115.9689,22.8746 L115.9689,23.3906 C115.9689,26.4376 118.0079,28.5466 121.0079,28.5466 C123.2339,28.5466 124.9689,27.4926 125.5549,25.7576 L133.0549,25.7576 Z" id="Fill-10"></path>
                    <path d="M154.2891,21.0703 C154.2891,17.0153 152.4141,14.4143 149.4841,14.4143 C146.5781,14.4143 144.7031,17.0393 144.6801,21.0703 C144.7031,25.1253 146.5551,27.7033 149.4841,27.7033 C152.4371,27.7033 154.2891,25.1253 154.2891,21.0703 M162.7731,21.0703 C162.7731,29.3903 159.0471,34.1953 152.6951,34.1953 C148.9451,34.1953 146.1331,32.4143 144.8911,29.4613 L144.7261,29.4613 L144.7261,42.0703 L136.4061,42.0703 L136.4061,8.2973 L144.6801,8.2973 L144.6801,12.8433 L144.8441,12.8433 C146.1331,9.7733 148.8981,7.9223 152.5781,7.9223 C159.0231,7.9223 162.7731,12.7263 162.7731,21.0703" id="Fill-11"></path>
                    <path d="M181.3125,24.6563 L181.3125,22.8983 L176.6715,23.2033 C174.4925,23.3673 173.2735,24.3753 173.2735,25.8753 C173.2735,27.4923 174.6095,28.4763 176.5785,28.4763 C179.1095,28.4763 181.3125,26.9293 181.3125,24.6563 M165.0465,26.4373 C165.0465,21.6563 168.7265,18.9843 175.3355,18.5863 L181.3125,18.2343 L181.3125,16.7813 C181.3125,14.7423 179.8595,13.6173 177.6795,13.6173 C175.4295,13.6173 174.0005,14.7893 173.7655,16.3593 L166.2895,16.3593 C166.5235,11.1333 170.9765,7.6873 178.1015,7.6873 C184.9215,7.6873 189.4455,11.1793 189.4455,16.3123 L189.4455,33.8203 L181.3595,33.8203 L181.3595,30.1873 L181.1955,30.1873 C179.8125,32.7653 176.6955,34.1953 173.6255,34.1953 C168.8905,34.1953 165.0465,31.0543 165.0465,26.4373" id="Fill-12"></path>
                    <path d="M210.7266,21.0469 C210.7266,16.9689 208.8746,14.4139 205.9216,14.4139 C202.9456,14.4139 201.1406,16.9449 201.1406,21.0469 C201.1406,25.1719 202.9216,27.4689 205.9216,27.4689 C208.8986,27.4689 210.7266,25.1719 210.7266,21.0469 M193.3126,35.4849 L201.3516,35.4849 C201.7496,36.9609 203.4846,37.9919 205.8516,37.9919 C209.0396,37.9919 210.7036,36.2809 210.7036,33.7499 L210.7036,29.0629 L210.5396,29.0629 C209.5316,31.7579 206.5316,33.6099 202.7816,33.6099 C196.6876,33.6099 192.6326,28.9689 192.6326,20.9769 C192.6326,12.8199 196.4996,7.9219 202.8986,7.9219 C206.6016,7.9219 209.4376,9.9379 210.5856,12.8199 L210.7496,12.8199 L210.7496,8.2969 L218.9996,8.2969 L218.9996,33.5389 C218.9996,39.6329 213.6096,43.4299 205.6646,43.4299 C198.3986,43.4299 193.7816,40.1249 193.3126,35.4849" id="Fill-13"></path>
                    <path d="M230.4141,18.1406 L239.6951,18.1406 C239.5551,15.4216 237.7031,13.5936 235.0781,13.5936 C232.5231,13.5936 230.6251,15.4926 230.4141,18.1406 Z M247.3831,25.7576 C246.5861,31.0316 241.8981,34.4296 235.2191,34.4296 C227.0861,34.4296 222.2341,29.4376 222.2341,21.1876 C222.2341,12.9376 227.1331,7.6876 234.9371,7.6876 C242.6251,7.6876 247.5231,12.7266 247.5231,20.5316 L247.5231,22.8746 L230.2971,22.8746 L230.2971,23.3906 C230.2971,26.4376 232.3361,28.5466 235.3361,28.5466 C237.5621,28.5466 239.2971,27.4926 239.8831,25.7576 L247.3831,25.7576 Z" id="Fill-14"></path>
                </g>
            </g>
        </g>
    </g>
</svg>