<?xml version="1.0" encoding="UTF-8"?>
<svg width="131px" height="62px" viewBox="0 0 131 62" version="1.1" xmlns="http://www.w3.org/2000/svg" xmlns:xlink="http://www.w3.org/1999/xlink">
    <!-- Generator: Sketch 52.6 (67491) - http://www.bohemiancoding.com/sketch -->
    <title>logo / meta-logo-wordmark</title>
    <desc>Created with Sketch.</desc>
    <g id="Symbols" stroke="none" stroke-width="1" fill="none" fill-rule="evenodd">
        <g id="Logo-/-meta-logo-wordmark" fill="#000000">
            <g id="meta-logo-wordmark">
                <path d="M28.4746,33.3525 C28.4746,31.2815 28.2066,29.8135 27.6756,28.9505 C27.1426,28.0855 26.2296,27.6555 24.9356,27.6555 C24.5326,27.6555 24.1156,27.6765 23.6826,27.7195 C23.2506,27.7625 22.8336,27.8135 22.4316,27.8715 L22.4316,45.3955 L15.9996,45.3955 L15.9996,23.4675 C16.5456,23.3245 17.1866,23.1735 17.9206,23.0145 C18.6546,22.8575 19.4316,22.7125 20.2506,22.5835 C21.0726,22.4535 21.9136,22.3535 22.7766,22.2815 C23.6396,22.2095 24.4896,22.1735 25.3226,22.1735 C26.9636,22.1735 28.2936,22.3815 29.3156,22.7985 C30.3356,23.2165 31.1786,23.7125 31.8406,24.2885 C32.7606,23.6265 33.8196,23.1095 35.0136,22.7345 C36.2066,22.3605 37.3076,22.1735 38.3156,22.1735 C40.1286,22.1735 41.6186,22.4245 42.7826,22.9285 C43.9486,23.4325 44.8756,24.1445 45.5676,25.0645 C46.2576,25.9865 46.7326,27.0795 46.9916,28.3455 C47.2496,29.6115 47.3796,31.0215 47.3796,32.5755 L47.3796,45.3955 L40.9486,45.3955 L40.9486,33.3525 C40.9486,31.2815 40.6826,29.8135 40.1506,28.9505 C39.6176,28.0855 38.7036,27.6555 37.4086,27.6555 C37.0646,27.6555 36.5806,27.7415 35.9626,27.9145 C35.3436,28.0855 34.8326,28.3025 34.4306,28.5615 C34.6316,29.2235 34.7606,29.9205 34.8196,30.6555 C34.8756,31.3885 34.9056,32.1735 34.9056,33.0065 L34.9056,45.3955 L28.4746,45.3955 L28.4746,33.3525 Z M67.2354,31.7559 C67.2074,31.2099 67.1124,30.6769 66.9544,30.1589 C66.7964,29.6409 66.5504,29.1809 66.2204,28.7769 C65.8894,28.3749 65.4714,28.0429 64.9684,27.7849 C64.4644,27.5259 63.8394,27.3959 63.0904,27.3959 C62.3714,27.3959 61.7534,27.5189 61.2354,27.7629 C60.7174,28.0079 60.2854,28.3319 59.9404,28.7349 C59.5944,29.1379 59.3284,29.6049 59.1424,30.1379 C58.9544,30.6699 58.8184,31.2099 58.7314,31.7559 L67.2354,31.7559 Z M52.1284,34.2159 C52.1284,32.2019 52.4364,30.4399 53.0554,28.9289 C53.6744,27.4179 54.4864,26.1589 55.4944,25.1519 C56.5014,24.1449 57.6594,23.3819 58.9684,22.8639 C60.2784,22.3459 61.6234,22.0869 63.0054,22.0869 C66.2274,22.0869 68.7744,23.0729 70.6444,25.0429 C72.5154,27.0149 73.4514,29.9139 73.4514,33.7409 C73.4514,34.1149 73.4354,34.5259 73.4084,34.9709 C73.3794,35.4179 73.3494,35.8139 73.3214,36.1579 L58.7314,36.1579 C58.8764,37.4829 59.4944,38.5319 60.5884,39.3099 C61.6814,40.0859 63.1484,40.4749 64.9904,40.4749 C66.1704,40.4749 67.3284,40.3669 68.4644,40.1509 C69.6014,39.9359 70.5294,39.6689 71.2504,39.3529 L72.1124,44.5749 C71.7674,44.7479 71.3064,44.9209 70.7314,45.0929 C70.1554,45.2669 69.5154,45.4169 68.8104,45.5459 C68.1044,45.6759 67.3494,45.7839 66.5444,45.8699 C65.7394,45.9559 64.9324,45.9999 64.1274,45.9999 C62.0834,45.9999 60.3064,45.6969 58.7964,45.0929 C57.2854,44.4889 56.0344,43.6619 55.0414,42.6109 C54.0474,41.5609 53.3144,40.3179 52.8394,38.8779 C52.3654,37.4399 52.1284,35.8849 52.1284,34.2159 Z M78.1982,17.0361 L84.6302,16.0001 L84.6302,22.6911 L92.3562,22.6911 L92.3562,28.0431 L84.6302,28.0431 L84.6302,36.0281 C84.6302,37.3821 84.8682,38.4611 85.3432,39.2661 C85.8162,40.0721 86.7732,40.4741 88.2122,40.4741 C88.9032,40.4741 89.6152,40.4101 90.3482,40.2801 C91.0832,40.1501 91.7522,39.9721 92.3562,39.7411 L93.2622,44.7481 C92.4862,45.0641 91.6232,45.3381 90.6732,45.5671 C89.7222,45.7991 88.5572,45.9131 87.1772,45.9131 C85.4222,45.9131 83.9682,45.6761 82.8172,45.2001 C81.6662,44.7251 80.7442,44.0641 80.0542,43.2151 C79.3642,42.3671 78.8822,41.3381 78.6082,40.1291 C78.3352,38.9211 78.1982,37.5821 78.1982,36.1151 L78.1982,17.0361 Z M105.3916,40.9062 C106.0246,40.9062 106.6286,40.8922 107.2036,40.8632 C107.7796,40.8352 108.2416,40.7922 108.5856,40.7342 L108.5856,35.8562 C108.3276,35.7992 107.9376,35.7422 107.4196,35.6832 C106.9026,35.6262 106.4266,35.5962 105.9956,35.5962 C105.3916,35.5962 104.8236,35.6332 104.2906,35.7052 C103.7576,35.7772 103.2906,35.9142 102.8886,36.1152 C102.4856,36.3172 102.1686,36.5902 101.9386,36.9352 C101.7076,37.2812 101.5936,37.7132 101.5936,38.2302 C101.5936,39.2382 101.9306,39.9352 102.6076,40.3242 C103.2836,40.7132 104.2116,40.9062 105.3916,40.9062 Z M104.8726,22.0872 C106.7736,22.0872 108.3546,22.3022 109.6216,22.7342 C110.8876,23.1662 111.9026,23.7852 112.6646,24.5912 C113.4266,25.3962 113.9666,26.3752 114.2846,27.5252 C114.5996,28.6772 114.7576,29.9572 114.7576,31.3672 L114.7576,44.7482 C113.8366,44.9492 112.5576,45.1862 110.9156,45.4602 C109.2766,45.7322 107.2906,45.8702 104.9586,45.8702 C103.4936,45.8702 102.1616,45.7402 100.9676,45.4812 C99.7736,45.2222 98.7446,44.7992 97.8806,44.2082 C97.0186,43.6182 96.3556,42.8482 95.8956,41.8992 C95.4356,40.9492 95.2046,39.7842 95.2046,38.4032 C95.2046,37.0792 95.4706,35.9572 96.0036,35.0362 C96.5366,34.1152 97.2476,33.3822 98.1396,32.8352 C99.0326,32.2892 100.0536,31.8922 101.2046,31.6482 C102.3546,31.4032 103.5506,31.2812 104.7876,31.2812 C105.6216,31.2812 106.3626,31.3172 107.0106,31.3882 C107.6586,31.4612 108.1826,31.5542 108.5856,31.6702 L108.5856,31.0642 C108.5856,29.9712 108.2546,29.0932 107.5936,28.4312 C106.9306,27.7702 105.7806,27.4392 104.1396,27.4392 C103.0456,27.4392 101.9676,27.5182 100.9026,27.6772 C99.8376,27.8352 98.9166,28.0572 98.1396,28.3452 L97.3196,23.1662 C97.6936,23.0512 98.1626,22.9282 98.7226,22.7992 C99.2846,22.6702 99.8946,22.5552 100.5576,22.4532 C101.2196,22.3532 101.9156,22.2672 102.6506,22.1952 C103.3836,22.1242 104.1256,22.0872 104.8726,22.0872 Z" id="meta-wordmark"></path>
            </g>
        </g>
    </g>
</svg>